<?xml version="1.0" encoding="utf-8"?>
<!-- Generator: Adobe Illustrator 23.0.6, SVG Export Plug-In . SVG Version: 6.00 Build 0)  -->
<svg version="1.1" id="Layer_1" xmlns="http://www.w3.org/2000/svg" xmlns:xlink="http://www.w3.org/1999/xlink" x="0px" y="0px"
	 viewBox="0 0 329.5 288" style="enable-background:new 0 0 329.5 288;" xml:space="preserve">
<style type="text/css">
	.st0{fill:#419699;}
	.st1{fill:#E84828;}
	.st2{fill:#EACC4D;}
	.st3{fill:#EDB9D2;}
	.st4{fill:#A3C759;}
</style>
<title>Aktiv 1</title>
<g id="Lag_2">
	<g id="Lag_1-2">
		<path class="st0" d="M329.5,133l-35.4-48.4c-29.4,21.5-69.3,21.5-98.8,0.2l-35.2,48.6C210.8,170,279.1,169.8,329.5,133z"/>
		<path class="st1" d="M224.1,169.5c-11.1,34.7-43.2,58.3-79.6,58.5l0.3,60c62.4-0.4,117.4-40.9,136.4-100.2L224.1,169.5z"/>
		<path class="st2" d="M193,75.8L228,27C177.3-9.4,109-9,58.7,28l35.6,48.3C123.6,54.8,163.4,54.6,193,75.8z"/>
		<path class="st3" d="M75.8,95c5.1-7.2,11.4-13.5,18.5-18.7L58.7,28C8.5,65-12.2,130.1,7.3,189.3l57-18.9
			C55.8,144.9,60.1,116.8,75.8,95z"/>
		<path class="st4" d="M64.3,170.4l-57,18.9c19.6,59.2,75.2,99.1,137.6,98.7l-0.3-60C108.1,228.2,75.7,205,64.3,170.4z"/>
	</g>
</g>
<g id="Lag_1-2_1_">
	<path class="st0" d="M584.3,54.3l-7.9-10.8c-6.5,4.8-15.4,4.8-22,0l-7.8,10.8C557.8,62.5,573,62.4,584.3,54.3z"/>
	<path class="st1" d="M560.8,62.4c-2.5,7.7-9.6,13-17.7,13l0.1,13.4c13.9-0.1,26.2-9.1,30.4-22.3L560.8,62.4z"/>
	<path class="st2" d="M553.9,41.5l7.8-10.9c-11.3-8.1-26.5-8-37.7,0.2l7.9,10.8C538.4,36.8,547.3,36.8,553.9,41.5z"/>
	<path class="st3" d="M527.7,45.8c1.1-1.6,2.5-3,4.1-4.2l-7.9-10.8c-11.2,8.2-15.8,22.7-11.4,35.9l12.7-4.2
		C523.3,56.9,524.2,50.7,527.7,45.8z"/>
	<path class="st4" d="M525.2,62.6l-12.7,4.2c4.4,13.2,16.7,22.1,30.6,22L543,75.4C534.9,75.5,527.7,70.3,525.2,62.6z"/>
</g>
</svg>
