<svg xmlns="http://www.w3.org/2000/svg" viewBox="0 0 329.53 288.02"><defs><style>.cls-1{fill:#419699;}.cls-2{fill:#e84828;}.cls-3{fill:#eacc4d;}.cls-4{fill:#edb9d2;}.cls-5{fill:#a3c759;}</style></defs><title>Aktiv 1</title><g id="Lag_2" data-name="Lag 2"><g id="Lag_1-2" data-name="Lag 1"><path class="cls-1" d="M329.53,133,294.16,84.57a84,84,0,0,1-98.75.21l-35.19,48.64A144.07,144.07,0,0,0,329.53,133Z"/><path class="cls-2" d="M224.05,169.52A84,84,0,0,1,144.49,228l.34,60A144.25,144.25,0,0,0,281.25,187.75Z"/><path class="cls-3" d="M193,75.78,228,27A144.05,144.05,0,0,0,58.69,28L94.25,76.33A84,84,0,0,1,193,75.78Z"/><path class="cls-4" d="M75.77,95A84.08,84.08,0,0,1,94.25,76.33L58.69,28A144.19,144.19,0,0,0,7.3,189.28l57-18.87A83.87,83.87,0,0,1,75.77,95Z"/><path class="cls-5" d="M64.28,170.41l-57,18.87A144,144,0,0,0,144.83,288l-.34-60a83.93,83.93,0,0,1-80.21-57.59Z"/></g></g></svg>